StickNoBills_final_no_refs.sfdir
StartChar: Percent_sign
Encoding: 5 37 102
Width: 677
VWidth: 0
Flags: HMW
LayerCount: 2
Back
Fore
SplineSet
184 -23 m 1
 359 716 l 1
 485 716 l 1
 311 -23 l 1
 184 -23 l 1
50 575 m 0
 50 635 98 683 158 683 c 0
 218 683 266 635 266 575 c 0
 266 515 218 467 158 467 c 0
 98 467 50 515 50 575 c 0
411 117 m 0
 411 177 459 225 519 225 c 0
 579 225 627 177 627 117 c 0
 627 57 579 9 519 9 c 0
 459 9 411 57 411 117 c 0
EndSplineSet
EndChar
StartChar: comma
Encoding: 303 44 47
Width: 364
VWidth: 0
Flags: HMW
LayerCount: 2
Back
Fore
SplineSet
227 -23 m 1
 100 -23 l 1
 137 129 l 1
 264 129 l 1
 227 -23 l 1
EndSplineSet
EndChar
StartChar: period
Encoding: 298 46 42
Width: 350
VWidth: 0
Flags: HMW
LayerCount: 2
Back
Fore
SplineSet
100 53 m 0
 100 95 133 129 175 129 c 0
 217 129 250 95 250 53 c 0
 250 11 217 -22 175 -22 c 0
 133 -22 100 11 100 53 c 0
EndSplineSet
EndChar
StartChar: eight
Encoding: 331 56 75
Width: 1024
VWidth: 0
Flags: HMW
LayerCount: 2
Back
Fore
SplineSet
421 125 m 1
 454 134 479 165 479 201 c 0
 479 251 452 274 420 283 c 1
 420 413 l 1
 456 424 476 446 476 497 c 0
 476 551 437 568 419 571 c 1
 419 698 l 1
 489 698 599 619 599 499 c 0
 599 415 556 352 542 349 c 1
 570 330 607 269 607 199 c 0
 607 53 463 -0 423 -0 c 0
 423 -0 422 -0 422 0 c 1
 421 125 l 1
359 125 m 1
 358 0 l 1
 358 -0 357 -0 357 -0 c 0
 317 -0 173 53 173 199 c 0
 173 269 210 330 238 349 c 1
 224 352 180 415 180 499 c 0
 180 619 291 698 361 698 c 1
 361 571 l 1
 343 568 304 551 304 497 c 0
 304 446 324 424 360 413 c 1
 360 283 l 1
 328 274 301 251 301 201 c 0
 301 165 326 134 359 125 c 1
EndSplineSet
Validated: 1
EndChar
StartChar: colon
Encoding: 290 58 34
Width: 167
VWidth: 0
Flags: HMW
LayerCount: 2
Back
Fore
SplineSet
3 70 m 0
 3 112 36 146 78 146 c 0
 120 146 153 112 153 70 c 0
 153 28 120 -5 78 -5 c 0
 36 -5 3 28 3 70 c 0
3 360 m 0
 3 402 36 436 78 436 c 0
 120 436 153 402 153 360 c 0
 153 318 120 285 78 285 c 0
 36 285 3 318 3 360 c 0
EndSplineSet
Validated: 1
EndChar
StartChar: less
Encoding: 339 60 83
Width: 1024
VWidth: 0
Flags: HMW
LayerCount: 2
Back
Fore
SplineSet
642 579 m 1
 642 479 l 1
 382 371 l 1
 643 265 l 1
 643 158 l 1
 208 337 l 1
 208 401 l 1
 642 579 l 1
EndSplineSet
Validated: 1
EndChar
StartChar: A
Encoding: 256 65 0
Width: 577
VWidth: 0
Flags: HMW
LayerCount: 2
Back
Fore
SplineSet
189 582 m 1
 206 582 l 1
 267 302 l 1
 201 0 l 1
 63 0 l 1
 189 582 l 1
237 700 m 1
 376 700 l 1
 527 0 l 1
 390 0 l 1
 370 85 l 1
 276 85 l 1
 306 224 l 1
 340 224 l 1
 237 700 l 1
EndSplineSet
Validated: 1
EndChar
StartChar: D
Encoding: 258 68 2
Width: 499
VWidth: 0
Flags: HMW
LayerCount: 2
Back
Fore
SplineSet
264 -0 m 1
 264 141 l 1
 270 141 319 149 320 197 c 2
 320 501 l 1
 320 506 312 556 264 557 c 1
 264 698 l 1
 407 698 461 564 461 501 c 1
 461 197 l 1
 461 50 324 -0 264 -0 c 1
67 700 m 1
 208 700 l 1
 208 0 l 1
 67 0 l 1
 67 700 l 1
EndSplineSet
Validated: 1
EndChar
StartChar: F
Encoding: 271 70 15
Width: 463
VWidth: 0
Flags: HMW
LayerCount: 2
Back
Fore
SplineSet
319 418 m 1
 319 277 l 1
 191 277 l 1
 191 1 l 1
 50 1 l 1
 50 701 l 5
 413 701 l 5
 413 560 l 1
 191 560 l 1
 191 418 l 1
 319 418 l 1
EndSplineSet
Validated: 1
EndChar
StartChar: H
Encoding: 272 72 16
Width: 501
VWidth: 0
Flags: HMW
LayerCount: 2
Back
Fore
SplineSet
209 421 m 1
 209 283 l 1
 180 283 l 1
 180 0 l 1
 39 0 l 1
 39 700 l 1
 180 700 l 1
 180 421 l 1
 209 421 l 1
293 700 m 1
 434 700 l 1
 434 0 l 1
 293 0 l 1
 293 283 l 1
 264 283 l 1
 264 421 l 1
 293 421 l 1
 293 700 l 1
EndSplineSet
Validated: 1
EndChar
StartChar: L
Encoding: 260 76 4
Width: 475
VWidth: 0
Flags: HMW
LayerCount: 2
Back
Fore
SplineSet
426 139 m 1
 426 0 l 1
 50 0 l 1
 50 698 l 5
 191 698 l 1
 191 139 l 1
 426 139 l 1
EndSplineSet
Validated: 1
EndChar
StartChar: T
Encoding: 261 84 5
Width: 516
VWidth: 0
Flags: HMW
LayerCount: 2
Back
Fore
SplineSet
469 702 m 1
 469 561 l 1
 319 561 l 1
 319 0 l 1
 178 0 l 1
 178 561 l 1
 35 561 l 1
 35 702 l 1
 469 702 l 1
EndSplineSet
Validated: 1
EndChar
StartChar: V
Encoding: 276 86 20
Width: 432
VWidth: 0
Flags: HMW
LayerCount: 2
Back
Fore
SplineSet
-76 700 m 1
 68 701 l 1
 227 158 l 1
 174 0 l 1
 127 0 l 1
 -76 700 l 1
380 700 m 1
 340 569 299 430 257 290 c 1
 247 290 l 1
 181 514 l 1
 236 700 l 1
 380 700 l 1
EndSplineSet
Validated: 1
EndChar
StartChar: W
Encoding: 277 87 21
Width: 790
VWidth: 0
Flags: HMW
LayerCount: 2
Back
Fore
SplineSet
67 700 m 1
 211 701 l 1
 369 158 l 1
 317 0 l 1
 270 0 l 1
 67 700 l 1
280 701 m 1
 424 701 l 1
 582 158 l 1
 530 0 l 1
 483 0 l 1
 280 701 l 1
740 700 m 1
 617 290 l 1
 607 290 l 1
 541 514 l 1
 596 701 l 1
 740 700 l 1
EndSplineSet
Validated: 1
EndChar
StartChar: underscore
Encoding: 354 95 98
Width: 975
VWidth: 0
Flags: HMW
LayerCount: 2
Back
Fore
SplineSet
854 -204 m 1
 114 -204 l 1
 114 -75 l 1
 854 -75 l 1
 854 -204 l 1
EndSplineSet
Validated: 1
EndChar
StartChar: c
Encoding: 320 99 64
Width: 458
VWidth: 0
Flags: HMW
LayerCount: 2
Back
Fore
SplineSet
264 410 m 1
 264 516 l 1
 331 516 398 450 398 381 c 1
 298 343 l 1
 298 365 l 2
 298 375 298 382 294 391 c 0
 287 408 264 410 264 410 c 1
264 105 m 1
 264 105 287 107 294 124 c 0
 298 133 298 141 298 151 c 2
 298 173 l 1
 398 135 l 1
 398 66 331 -1 264 -1 c 1
 264 105 l 1
215 516 m 1
 215 409 l 1
 183 409 177 381 177 377 c 1
 177 139 l 1
 177 134 184 107 216 106 c 1
 216 -0 l 1
 116 -0 69 96 69 139 c 2
 69 379 l 1
 70 422 117 516 215 516 c 1
EndSplineSet
Validated: 1
EndChar
StartChar: d
Encoding: 309 100 53
Width: 437
VWidth: 0
Flags: HMW
LayerCount: 2
Back
Fore
SplineSet
221 409 m 1
 202 409 l 1
 171 408 165 381 165 377 c 1
 165 139 l 1
 165 135 172 107 204 107 c 1
 221 107 l 1
 221 0 l 1
 204 0 l 1
 104 0 58 96 58 139 c 2
 58 379 l 2
 59 423 105 516 203 516 c 1
 221 516 l 1
 221 409 l 1
269 698 m 1
 380 698 l 1
 380 0 l 1
 269 0 l 1
 269 698 l 1
EndSplineSet
Validated: 1
EndChar
StartChar: t
Encoding: 322 116 66
Width: 311
VWidth: 0
Flags: HMW
LayerCount: 2
Back
Fore
SplineSet
264 -0 m 1
 241 -0 l 2
 142 1 93 96 93 138 c 2
 93 365 l 1
 204 365 l 1
 204 138 l 2
 204 134 210 107 242 106 c 2
 264 106 l 1
 264 -0 l 1
30 408 m 1
 30 516 l 1
 93 516 l 1
 93 690 l 1
 204 690 l 1
 204 516 l 1
 264 516 l 1
 264 408 l 1
 30 408 l 1
EndSplineSet
Validated: 1
EndChar
StartChar: yen
Encoding: 344 165 88
Width: 1024
VWidth: 0
Flags: HM
LayerCount: 2
Back
Fore
SplineSet
478 698 m 1049,0,-1
341 698 m 1,1,-1
 478 698 l 1,2,-1
 541 485 l 1,3,-1
 601 698 l 1,4,-1
 738 698 l 1,5,-1
 650 408 l 1,6,-1
 761 408 l 1,7,-1
 761 350 l 1,8,-1
 633 350 l 1,9,-1
 619 295 l 1,10,-1
 761 295 l 1,11,-1
 761 236 l 1,12,-1
 608 236 l 1,13,-1
 608 0 l 1,14,-1
 471 0 l 1,15,-1
 471 238 l 1,16,-1
 318 238 l 1,17,-1
 319 295 l 1,18,-1
 461 295 l 1,19,-1
 445 351 l 1,20,-1
 318 351 l 1,21,-1
 318 409 l 1,22,-1
 430 409 l 1,23,-1
 341 698 l 1,1,-1
EndSplineSet
Validated: 1
EndChar
StartChar: HKD
Encoding: 346 22291 90
Width: 1024
VWidth: 0
Flags: HMW
LayerCount: 2
Back
Fore
SplineSet
616 757 m 1
 616 698 l 1
 657 692 691 680 724 646 c 0
 760 609 780 561 781 528 c 1
 645 502 l 1
 643 532 639 542 616 562 c 1
 616 425 l 1
 720 391 801 331 801 224 c 0
 801 123 733 19 616 0 c 1
 616 -53 l 1
 541 -53 l 1
 541 0 l 1
 491 11 453 24 413 64 c 0
 375 101 363 139 353 187 c 1
 492 214 l 1
 493 169 511 147 541 136 c 1
 541 312 l 1
 440 348 376 399 376 506 c 0
 376 605 449 684 540 699 c 1
 540 757 l 1
 616 757 l 1
120 614 m 1
 120 573 l 1
 111 573 l 1
 111 488 l 1
 69 488 l 1
 69 698 l 1
 111 698 l 1
 111 614 l 1
 120 614 l 1
302 698 m 1
 344 698 l 1
 318 611 l 1
 345 488 l 1
 303 488 l 1
 276 611 l 1
 302 698 l 1
217 698 m 1
 260 698 l 1
 260 488 l 1
 217 488 l 1
 217 698 l 1
145 698 m 1
 188 698 l 1
 188 488 l 1
 145 488 l 1
 145 573 l 1
 136 573 l 1
 136 614 l 1
 145 614 l 1
 145 698 l 1
EndSplineSet
Validated: 1
EndChar
